<?xml version="1.0" encoding="UTF-8" standalone="no"?>
<svg
   display="block"
   height="41px"
   width="27px"
   viewBox="0 0 27 41"
   version="1.1"
   id="svg38"
   sodipodi:docname="dining.svg"
   inkscape:version="1.4.1 (unknown)"
   xmlns:inkscape="http://www.inkscape.org/namespaces/inkscape"
   xmlns:sodipodi="http://sodipodi.sourceforge.net/DTD/sodipodi-0.dtd"
   xmlns="http://www.w3.org/2000/svg"
   xmlns:svg="http://www.w3.org/2000/svg"
   xmlns:rdf="http://www.w3.org/1999/02/22-rdf-syntax-ns#"
   xmlns:cc="http://creativecommons.org/ns#"
   xmlns:dc="http://purl.org/dc/elements/1.1/">
  <metadata
     id="metadata1161">
    <rdf:RDF>
      <cc:Work
         rdf:about="">
        <dc:format>image/svg+xml</dc:format>
        <dc:type
           rdf:resource="http://purl.org/dc/dcmitype/StillImage" />
        <dc:title />
      </cc:Work>
    </rdf:RDF>
  </metadata>
  <defs
     id="defs42">
    <inkscape:path-effect
       effect="bspline"
       id="path-effect835"
       is_visible="true"
       lpeversion="1"
       weight="33.333333"
       steps="2"
       helper_size="0"
       apply_no_weight="true"
       apply_with_weight="true"
       only_selected="false" />
    <inkscape:path-effect
       effect="bspline"
       id="path-effect891"
       is_visible="true"
       lpeversion="1"
       weight="33.333333"
       steps="2"
       helper_size="0"
       apply_no_weight="true"
       apply_with_weight="true"
       only_selected="false" />
    <inkscape:path-effect
       effect="bspline"
       id="path-effect910"
       is_visible="true"
       lpeversion="1"
       weight="33.333333"
       steps="2"
       helper_size="0"
       apply_no_weight="true"
       apply_with_weight="true"
       only_selected="false" />
    <inkscape:path-effect
       effect="bspline"
       id="path-effect929"
       is_visible="true"
       lpeversion="1"
       weight="33.333333"
       steps="2"
       helper_size="0"
       apply_no_weight="true"
       apply_with_weight="true"
       only_selected="false" />
    <inkscape:path-effect
       effect="bspline"
       id="path-effect950"
       is_visible="true"
       lpeversion="1"
       weight="33.333333"
       steps="2"
       helper_size="0"
       apply_no_weight="true"
       apply_with_weight="true"
       only_selected="false" />
    <inkscape:path-effect
       effect="bspline"
       id="path-effect969"
       is_visible="true"
       lpeversion="1"
       weight="33.333333"
       steps="2"
       helper_size="0"
       apply_no_weight="true"
       apply_with_weight="true"
       only_selected="false" />
    <inkscape:path-effect
       effect="bspline"
       id="path-effect988"
       is_visible="true"
       lpeversion="1"
       weight="33.333333"
       steps="2"
       helper_size="0"
       apply_no_weight="true"
       apply_with_weight="true"
       only_selected="false" />
    <inkscape:path-effect
       effect="bspline"
       id="path-effect1007"
       is_visible="true"
       lpeversion="1"
       weight="33.333333"
       steps="2"
       helper_size="0"
       apply_no_weight="true"
       apply_with_weight="true"
       only_selected="false" />
    <inkscape:path-effect
       effect="bspline"
       id="path-effect1043"
       is_visible="true"
       lpeversion="1"
       weight="33.333333"
       steps="2"
       helper_size="0"
       apply_no_weight="true"
       apply_with_weight="true"
       only_selected="false" />
  </defs>
  <sodipodi:namedview
     id="namedview40"
     pagecolor="#ffffff"
     bordercolor="#666666"
     borderopacity="1.0"
     inkscape:showpageshadow="2"
     inkscape:pageopacity="0.0"
     inkscape:pagecheckerboard="0"
     inkscape:deskcolor="#d1d1d1"
     showgrid="false"
     inkscape:zoom="16.280703"
     inkscape:cx="15.601292"
     inkscape:cy="15.877693"
     inkscape:window-width="2485"
     inkscape:window-height="974"
     inkscape:window-x="0"
     inkscape:window-y="0"
     inkscape:window-maximized="0"
     inkscape:current-layer="svg38"
     inkscape:document-rotation="0"
     showguides="true"
     inkscape:guide-bbox="true">
    <sodipodi:guide
       position="13.789725,-1.1943854"
       orientation="1,0"
       id="guide1951"
       inkscape:locked="false" />
  </sodipodi:namedview>
  <g
     transform="matrix(2.8227421,0,0,2.8227421,-32.277583,19.759195)"
     fill="#ffffff"
     id="g28"
     style="fill-rule:nonzero" />
  <g
     transform="matrix(0.99273325,0,0,0.99273325,3.1513297,29.444819)"
     fill="#000000"
     id="g18"
     style="fill-rule:nonzero">
    <ellipse
       opacity="0.04"
       cx="10.5"
       cy="5.8002901"
       rx="10.5"
       ry="5.2500229"
       id="ellipse2" />
    <ellipse
       opacity="0.04"
       cx="10.5"
       cy="5.8002901"
       rx="10.5"
       ry="5.2500229"
       id="ellipse4" />
    <ellipse
       opacity="0.04"
       cx="10.5"
       cy="5.8002901"
       rx="9.5"
       ry="4.7727499"
       id="ellipse6" />
    <ellipse
       opacity="0.04"
       cx="10.5"
       cy="5.8002901"
       rx="8.5"
       ry="4.2954993"
       id="ellipse8" />
    <ellipse
       opacity="0.04"
       cx="10.5"
       cy="5.8002901"
       rx="7.5"
       ry="3.818223"
       id="ellipse10" />
    <ellipse
       opacity="0.04"
       cx="10.5"
       cy="5.8002901"
       rx="6.5"
       ry="3.3409467"
       id="ellipse12" />
    <ellipse
       opacity="0.04"
       cx="10.5"
       cy="5.8002901"
       rx="5.5"
       ry="2.8636706"
       id="ellipse14" />
    <ellipse
       opacity="0.04"
       cx="10.5"
       cy="5.8002901"
       rx="4.5"
       ry="2.3863688"
       id="ellipse16" />
  </g>
  <g
     fill="#3fb1ce"
     id="g22"
     transform="matrix(0.99273325,0,0,0.99273325,0.39029104,0.74241923)"
     style="fill-rule:nonzero;fill:#d5f6ff;fill-opacity:1">
    <path
       d="m 27,13.5 c 0,5.574644 -6.749999,13.500002 -12.25,21.000002 -0.733335,1.000002 -1.766665,1.000002 -2.5,0 C 6.7499993,27.000002 0,19.222562 0,13.5 0,6.0441559 6.0441559,0 13.5,0 20.955844,0 27,6.0441559 27,13.5 Z"
       id="path20"
       style="fill:#d5f6ff;fill-opacity:1" />
  </g>
  <g
     opacity="0.25"
     fill="#000000"
     id="g26"
     transform="matrix(0.99273325,0,0,0.99273325,0.39029104,0.74241923)"
     style="fill-rule:nonzero">
    <path
       d="M 13.5,0 C 6.0441559,0 0,6.0441559 0,13.5 c 0,5.722562 6.7499993,13.5 12.25,21 0.75,1.022727 1.766664,1.000004 2.5,0 C 20.250001,27 27,19.074644 27,13.5 27,6.0441559 20.955844,0 13.5,0 Z m 0,1 C 20.415404,1 26,6.584596 26,13.5 c 0,2.398657 -1.504416,5.681431 -3.779297,9.238281 -2.27488,3.556851 -5.515584,7.403886 -8.277344,11.169922 C 13.743445,34.180814 13.612715,34.322738 13.5,34.441406 13.387285,34.322738 13.256555,34.180814 13.056641,33.908203 10.284481,30.127985 7.4148684,26.314159 5.015625,22.773438 2.6163816,19.232715 1,15.953538 1,13.5 1,6.584596 6.584596,1 13.5,1 Z"
       id="path24" />
  </g>
  <path
     d="m 18.905579,5.1538782 c 0,-0.3854779 -0.269021,-0.706712 -0.592799,-0.6494481 C 16.285592,4.8633711 14.813115,7.3145172 14.741692,16.323 a 0.59518101,0.69833194 0 0 0 0.592801,0.698332 c 0.666602,0.01404 1.190361,0.18158 1.190361,1.400853 v 7.681653 a 0.59518101,0.69833194 0 0 0 0.595182,0.698329 h 1.190361 a 0.59518101,0.69833194 0 0 0 0.595182,-0.698329 z M 8.4899113,4.4555455 A 0.29759049,0.34916595 0 0 1 8.787501,4.8047133 v 7.1537127 a 0.15240818,0.17882207 0 0 0 0.3047337,0.0082 L 9.3695899,4.7878362 A 0.29759049,0.34916595 0 0 1 9.6683698,4.4554298 H 10.28974 a 0.29759049,0.34916595 0 0 1 0.29759,0.3324064 l 0.277355,7.1788528 a 0.15240818,0.17882207 0 0 0 0.304731,-0.0082 V 4.8047133 a 0.29759049,0.34916595 0 0 1 0.296402,-0.3491678 h 0.345205 a 0.59518101,0.69833194 0 0 1 0.592798,0.6396722 l 0.503525,7.0810863 a 2.0117118,2.3603619 0 0 1 -1.260594,2.389693 l -0.06308,0.03074 a 1.0951331,1.2849309 0 0 0 -0.69041,1.234648 l 0.239262,9.574132 a 1.1558415,1.3561606 0 1 1 -2.3116821,0 l 0.2404523,-9.574132 a 1.0951331,1.2849309 0 0 0 -0.69041,-1.234648 l -0.063082,-0.03074 A 2.0117118,2.3603619 0 0 1 7.047209,12.174909 L 7.5519192,5.0952177 A 0.59518101,0.69833194 0 0 1 8.1447204,4.4555455 Z"
     id="path1"
     style="stroke-width:1.2894;fill:#808080" />
</svg>
