<?xml version="1.0" encoding="UTF-8" standalone="no"?>
<svg
   xmlns:dc="http://purl.org/dc/elements/1.1/"
   xmlns:cc="http://creativecommons.org/ns#"
   xmlns:rdf="http://www.w3.org/1999/02/22-rdf-syntax-ns#"
   xmlns:svg="http://www.w3.org/2000/svg"
   xmlns="http://www.w3.org/2000/svg"
   xmlns:sodipodi="http://sodipodi.sourceforge.net/DTD/sodipodi-0.dtd"
   xmlns:inkscape="http://www.inkscape.org/namespaces/inkscape"
   display="block"
   height="41px"
   width="27px"
   viewBox="0 0 27 41"
   version="1.1"
   id="svg38"
   sodipodi:docname="glutenfreemarker.svg"
   inkscape:version="1.0.1 (3bc2e813f5, 2020-09-07)">
  <metadata
     id="metadata1161">
    <rdf:RDF>
      <cc:Work
         rdf:about="">
        <dc:format>image/svg+xml</dc:format>
        <dc:type
           rdf:resource="http://purl.org/dc/dcmitype/StillImage" />
        <dc:title></dc:title>
      </cc:Work>
    </rdf:RDF>
  </metadata>
  <defs
     id="defs42">
    <inkscape:path-effect
       effect="bspline"
       id="path-effect835"
       is_visible="true"
       lpeversion="1"
       weight="33.333333"
       steps="2"
       helper_size="0"
       apply_no_weight="true"
       apply_with_weight="true"
       only_selected="false" />
    <inkscape:path-effect
       effect="bspline"
       id="path-effect891"
       is_visible="true"
       lpeversion="1"
       weight="33.333333"
       steps="2"
       helper_size="0"
       apply_no_weight="true"
       apply_with_weight="true"
       only_selected="false" />
    <inkscape:path-effect
       effect="bspline"
       id="path-effect910"
       is_visible="true"
       lpeversion="1"
       weight="33.333333"
       steps="2"
       helper_size="0"
       apply_no_weight="true"
       apply_with_weight="true"
       only_selected="false" />
    <inkscape:path-effect
       effect="bspline"
       id="path-effect929"
       is_visible="true"
       lpeversion="1"
       weight="33.333333"
       steps="2"
       helper_size="0"
       apply_no_weight="true"
       apply_with_weight="true"
       only_selected="false" />
    <inkscape:path-effect
       effect="bspline"
       id="path-effect950"
       is_visible="true"
       lpeversion="1"
       weight="33.333333"
       steps="2"
       helper_size="0"
       apply_no_weight="true"
       apply_with_weight="true"
       only_selected="false" />
    <inkscape:path-effect
       effect="bspline"
       id="path-effect969"
       is_visible="true"
       lpeversion="1"
       weight="33.333333"
       steps="2"
       helper_size="0"
       apply_no_weight="true"
       apply_with_weight="true"
       only_selected="false" />
    <inkscape:path-effect
       effect="bspline"
       id="path-effect988"
       is_visible="true"
       lpeversion="1"
       weight="33.333333"
       steps="2"
       helper_size="0"
       apply_no_weight="true"
       apply_with_weight="true"
       only_selected="false" />
    <inkscape:path-effect
       effect="bspline"
       id="path-effect1007"
       is_visible="true"
       lpeversion="1"
       weight="33.333333"
       steps="2"
       helper_size="0"
       apply_no_weight="true"
       apply_with_weight="true"
       only_selected="false" />
    <inkscape:path-effect
       effect="bspline"
       id="path-effect1043"
       is_visible="true"
       lpeversion="1"
       weight="33.333333"
       steps="2"
       helper_size="0"
       apply_no_weight="true"
       apply_with_weight="true"
       only_selected="false" />
  </defs>
  <sodipodi:namedview
     id="namedview40"
     pagecolor="#ffffff"
     bordercolor="#666666"
     borderopacity="1.0"
     inkscape:showpageshadow="2"
     inkscape:pageopacity="0.0"
     inkscape:pagecheckerboard="0"
     inkscape:deskcolor="#d1d1d1"
     showgrid="false"
     inkscape:zoom="16.280703"
     inkscape:cx="7.1476712"
     inkscape:cy="20.586864"
     inkscape:window-width="1455"
     inkscape:window-height="974"
     inkscape:window-x="253"
     inkscape:window-y="0"
     inkscape:window-maximized="0"
     inkscape:current-layer="svg38"
     inkscape:document-rotation="0" />
  <g
     transform="matrix(2.8227421,0,0,2.8227421,-32.277583,19.759195)"
     fill="#ffffff"
     id="g28"
     style="fill-rule:nonzero" />
  <g
     transform="matrix(0.99273325,0,0,0.99273325,3.3684907,29.531683)"
     fill="#000000"
     id="g18"
     style="fill-rule:nonzero">
    <ellipse
       opacity="0.04"
       cx="10.5"
       cy="5.8002901"
       rx="10.5"
       ry="5.2500229"
       id="ellipse2" />
    <ellipse
       opacity="0.04"
       cx="10.5"
       cy="5.8002901"
       rx="10.5"
       ry="5.2500229"
       id="ellipse4" />
    <ellipse
       opacity="0.04"
       cx="10.5"
       cy="5.8002901"
       rx="9.5"
       ry="4.7727499"
       id="ellipse6" />
    <ellipse
       opacity="0.04"
       cx="10.5"
       cy="5.8002901"
       rx="8.5"
       ry="4.2954993"
       id="ellipse8" />
    <ellipse
       opacity="0.04"
       cx="10.5"
       cy="5.8002901"
       rx="7.5"
       ry="3.818223"
       id="ellipse10" />
    <ellipse
       opacity="0.04"
       cx="10.5"
       cy="5.8002901"
       rx="6.5"
       ry="3.3409467"
       id="ellipse12" />
    <ellipse
       opacity="0.04"
       cx="10.5"
       cy="5.8002901"
       rx="5.5"
       ry="2.8636706"
       id="ellipse14" />
    <ellipse
       opacity="0.04"
       cx="10.5"
       cy="5.8002901"
       rx="4.5"
       ry="2.3863688"
       id="ellipse16" />
  </g>
  <g
     fill="#3fb1ce"
     id="g22"
     transform="matrix(0.99273325,0,0,0.99273325,0.39029104,0.74241923)"
     style="fill-rule:nonzero">
    <path
       d="m 27,13.5 c 0,5.574644 -6.749999,13.500002 -12.25,21.000002 -0.733335,1.000002 -1.766665,1.000002 -2.5,0 C 6.7499993,27.000002 0,19.222562 0,13.5 0,6.0441559 6.0441559,0 13.5,0 20.955844,0 27,6.0441559 27,13.5 Z"
       id="path20" />
  </g>
  <g
     opacity="0.25"
     fill="#000000"
     id="g26"
     transform="matrix(0.99273325,0,0,0.99273325,0.39029104,0.74241923)"
     style="fill-rule:nonzero">
    <path
       d="M 13.5,0 C 6.0441559,0 0,6.0441559 0,13.5 c 0,5.722562 6.7499993,13.5 12.25,21 0.75,1.022727 1.766664,1.000004 2.5,0 C 20.250001,27 27,19.074644 27,13.5 27,6.0441559 20.955844,0 13.5,0 Z m 0,1 C 20.415404,1 26,6.584596 26,13.5 c 0,2.398657 -1.504416,5.681431 -3.779297,9.238281 -2.27488,3.556851 -5.515584,7.403886 -8.277344,11.169922 C 13.743445,34.180814 13.612715,34.322738 13.5,34.441406 13.387285,34.322738 13.256555,34.180814 13.056641,33.908203 10.284481,30.127985 7.4148684,26.314159 5.015625,22.773438 2.6163816,19.232715 1,15.953538 1,13.5 1,6.584596 6.584596,1 13.5,1 Z"
       id="path24" />
  </g>
  <rect
     style="fill:#ecf800;fill-opacity:1;stroke:#000000;stroke-width:0.0364124;stroke-linejoin:round;stroke-opacity:1"
     id="rect1009"
     width="0.41570193"
     height="19.038946"
     x="13.795245"
     y="6.8983278" />
  <path
     style="fill:#ecf800;fill-opacity:1;fill-rule:evenodd;stroke:#000000;stroke-width:0.0280877px;stroke-linecap:butt;stroke-linejoin:miter;stroke-opacity:1"
     d="m 14.390527,20.29975 c -0.439524,-0.328788 -0.595463,-1.72686 -0.264741,-3.006457 0.330722,-1.279598 1.141124,-2.413636 1.603625,-2.938777 0.462501,-0.525142 0.572686,-0.435287 0.604835,0.463603 0.03215,0.89889 -0.01371,2.606687 -0.397809,3.834595 -0.384098,1.227908 -1.106385,1.975825 -1.54591,1.647036 z"
     id="path833"
     inkscape:path-effect="#path-effect835"
     inkscape:original-d="m 14.107769,21.376452 c -0.156759,-1.405491 -0.312698,-2.803563 -0.470314,-4.216613 0.819082,-1.146123 1.629484,-2.280161 2.444237,-3.420348 0.110198,0.08991 0.220386,0.179761 0.330566,0.269573 -0.04584,1.707946 -0.09172,3.415742 -0.137585,5.123592 -0.722303,0.747996 -1.44459,1.495913 -2.166904,2.243796 z"
     sodipodi:nodetypes="cccccc" />
  <path
     style="fill:#ecf800;fill-opacity:1;fill-rule:evenodd;stroke:#000000;stroke-width:0.0280877px;stroke-linecap:butt;stroke-linejoin:miter;stroke-opacity:1"
     d="m 13.564325,17.651043 c 0.439525,-0.328787 0.595465,-1.726869 0.264742,-3.006464 -0.330722,-1.279594 -1.141126,-2.413632 -1.603623,-2.938774 -0.462497,-0.525142 -0.572687,-0.435285 -0.604836,0.463604 -0.03215,0.898888 0.01371,2.606687 0.397809,3.834597 0.384097,1.22791 1.106382,1.975823 1.545908,1.647037 z"
     id="path833-6"
     inkscape:path-effect="#path-effect891"
     inkscape:original-d="m 13.847085,18.727745 c 0.156757,-1.40549 0.312697,-2.803572 0.470313,-4.216618 -0.819081,-1.146122 -1.629484,-2.280161 -2.444236,-3.420341 -0.110197,0.0899 -0.220388,0.179754 -0.330567,0.269568 0.04584,1.707944 0.09172,3.415742 0.137586,5.123597 0.722303,0.747994 1.444589,1.495906 2.166904,2.243794 z"
     sodipodi:nodetypes="cccccc" />
  <path
     style="fill:#ecf800;fill-opacity:1;fill-rule:evenodd;stroke:#000000;stroke-width:0.0280877px;stroke-linecap:butt;stroke-linejoin:miter;stroke-opacity:1"
     d="m 14.378189,15.273814 c -0.439524,-0.328789 -0.595463,-1.726864 -0.26474,-3.006463 0.330722,-1.279598 1.141124,-2.413634 1.603622,-2.9387762 0.462498,-0.5251422 0.572687,-0.435287 0.604838,0.4636023 0.03215,0.8988889 -0.01371,2.6066859 -0.397807,3.8345989 -0.3841,1.227912 -1.106388,1.975827 -1.545913,1.647038 z"
     id="path833-7"
     inkscape:path-effect="#path-effect910"
     inkscape:original-d="m 14.095431,16.350511 c -0.156759,-1.405487 -0.312698,-2.803562 -0.470315,-4.216614 0.819084,-1.146124 1.629485,-2.2801603 2.444237,-3.4203413 0.110197,0.0899 0.220387,0.179754 0.330568,0.269566 -0.04584,1.7079453 -0.09172,3.4157413 -0.137579,5.1235993 -0.722311,0.747995 -1.444598,1.495911 -2.166911,2.24379 z"
     sodipodi:nodetypes="cccccc" />
  <path
     style="fill:#ecf800;fill-opacity:1;fill-rule:evenodd;stroke:#000000;stroke-width:0.0280877px;stroke-linecap:butt;stroke-linejoin:miter;stroke-opacity:1"
     d="m 13.564326,12.491947 c 0.439525,-0.328789 0.595463,-1.726863 0.264741,-3.0064609 -0.330723,-1.2795978 -1.141126,-2.4136354 -1.603625,-2.9387764 -0.462499,-0.525141 -0.572686,-0.4352871 -0.604834,0.4636017 -0.03215,0.8988888 0.01371,2.6066872 0.397809,3.8345976 0.384098,1.22791 1.106384,1.975827 1.545909,1.647038 z"
     id="path833-6-5"
     inkscape:path-effect="#path-effect929"
     inkscape:original-d="m 13.847085,13.568649 c 0.156757,-1.405492 0.312697,-2.803566 0.470313,-4.2166173 -0.819081,-1.146124 -1.629484,-2.2801616 -2.444236,-3.4203426 -0.110197,0.089906 -0.220388,0.179755 -0.330567,0.2695665 0.04584,1.7079452 0.09172,3.4157431 0.137586,5.1235984 0.722303,0.747995 1.444589,1.495912 2.166904,2.243795 z"
     sodipodi:nodetypes="cccccc" />
  <path
     style="fill:#ecf800;fill-opacity:1;fill-rule:evenodd;stroke:#000000;stroke-width:0.0280877px;stroke-linecap:butt;stroke-linejoin:miter;stroke-opacity:1"
     d="M 14.410025,10.064136 C 13.9705,9.7353475 13.814561,8.3372763 14.145283,7.0576786 14.476005,5.778081 15.286407,4.6440434 15.748906,4.1189003 c 0.462499,-0.525143 0.572688,-0.4352859 0.604837,0.4636039 0.03215,0.8988898 -0.01371,2.606688 -0.39781,3.8345962 -0.384098,1.2279083 -1.106383,1.9758236 -1.545908,1.6470356 z"
     id="path833-7-3"
     inkscape:path-effect="#path-effect950"
     inkscape:original-d="m 14.127266,11.140838 c -0.156759,-1.4054913 -0.3127,-2.8035623 -0.470315,-4.2166132 0.819083,-1.1461229 1.629485,-2.2801609 2.444238,-3.4203472 0.110195,0.089906 0.220386,0.1797604 0.330567,0.2695719 -0.04584,1.7079452 -0.09172,3.4157428 -0.137587,5.1235932 -0.722304,0.747995 -1.444588,1.4959113 -2.166903,2.2437953 z"
     sodipodi:nodetypes="cccccc" />
  <path
     style="fill:#ecf800;fill-opacity:1;fill-rule:evenodd;stroke:#000000;stroke-width:0.0280877px;stroke-linecap:butt;stroke-linejoin:miter;stroke-opacity:1"
     d="m 13.532495,22.810136 c 0.439524,-0.32879 0.595461,-1.726866 0.264739,-3.006463 -0.330723,-1.279596 -1.141126,-2.413635 -1.603624,-2.938775 -0.462499,-0.525139 -0.572682,-0.435287 -0.604832,0.463602 -0.03215,0.898888 0.01371,2.606691 0.397807,3.8346 0.384099,1.22791 1.106386,1.975826 1.54591,1.647036 z"
     id="path833-6-56"
     inkscape:path-effect="#path-effect969"
     inkscape:original-d="m 13.815254,23.886837 c 0.156759,-1.405492 0.3127,-2.803567 0.47031,-4.216618 -0.819081,-1.146122 -1.629484,-2.280161 -2.444233,-3.420341 -0.110196,0.08991 -0.220385,0.179755 -0.330565,0.269567 0.04584,1.707944 0.09171,3.415746 0.137579,5.123595 0.72231,0.747998 1.444597,1.495914 2.166909,2.243797 z"
     sodipodi:nodetypes="cccccc" />
  <path
     style="fill:#ecf800;fill-opacity:1;fill-rule:evenodd;stroke:#000000;stroke-width:0.02342px;stroke-linecap:butt;stroke-linejoin:miter;stroke-opacity:1"
     d="m 13.901636,24.598944 c 0.01371,-0.626741 0.04098,-1.873608 0.432541,-2.90154 0.391562,-1.027931 1.139147,-1.815174 1.552878,-2.158857 0.41373,-0.343683 0.489536,-0.239586 0.419263,0.54579 -0.07027,0.785376 -0.286588,2.251926 -0.714011,3.222373 -0.427423,0.970447 -1.0659,1.444713 -1.385136,1.681843 -0.319235,0.237131 -0.319243,0.237131 -0.305535,-0.389609 z"
     id="path833-2"
     inkscape:path-effect="#path-effect988"
     inkscape:original-d="m 13.887928,25.225684 c 0.02744,-1.25348 0.05469,-2.500348 0.08225,-3.760569 0.755586,-0.795619 1.50317,-1.582862 2.254774,-2.374385 0.07581,0.104151 0.151622,0.208243 0.227429,0.312306 -0.216325,1.466678 -0.432642,2.933228 -0.648974,4.399821 -0.638504,0.474326 -1.276978,0.948596 -1.915471,1.422827 z"
     sodipodi:nodetypes="cccccc" />
  <path
     style="fill:#ecf800;fill-opacity:1;fill-rule:evenodd;stroke:#000000;stroke-width:0.0203071px;stroke-linecap:butt;stroke-linejoin:miter;stroke-opacity:1"
     d="m 14.071853,7.9117336 c 0.06295,-0.4573621 0.1882,-1.3672649 -0.07743,-2.2000619 C 13.7288,4.8788747 13.077913,4.1408172 12.706453,3.7990444 12.334993,3.4572715 12.246495,3.5157493 12.220671,4.1007696 c -0.02582,0.5850203 0.01101,1.696495 0.319502,2.4956466 0.308492,0.7991516 0.888612,1.2859176 1.17867,1.5292985 0.290057,0.243381 0.290055,0.243381 0.35301,-0.2139811 z"
     id="path833-6-5-9"
     inkscape:path-effect="#path-effect1007"
     inkscape:original-d="M 14.008898,8.3690957 C 14.134804,7.4543711 14.260045,6.5444677 14.38664,5.6248161 13.728779,4.8788932 13.077891,4.1408365 12.423514,3.3987778 c -0.08851,0.058511 -0.177007,0.116989 -0.265504,0.1754414 0.03684,1.1115706 0.07365,2.2230461 0.110507,3.3345586 0.580129,0.4868131 1.160249,0.9735787 1.740383,1.4603179 z"
     sodipodi:nodetypes="cccccc" />
  <path
     style="fill:none;fill-rule:evenodd;stroke:#ff0000;stroke-width:1.07053;stroke-linecap:butt;stroke-linejoin:miter;stroke-miterlimit:4;stroke-dasharray:none;stroke-opacity:1"
     d="M 5.6657782,23.028684 C 11.273831,17.420631 16.881884,11.812577 22.489939,6.2045227"
     id="path1041"
     inkscape:path-effect="#path-effect1043"
     inkscape:original-d="M 5.6657782,23.028684 C 11.273858,17.420658 16.881911,11.812604 22.489939,6.2045227" />
</svg>
