<?xml version="1.0" encoding="UTF-8" standalone="no"?>
<svg
   display="block"
   height="41px"
   width="27px"
   viewBox="0 0 27 41"
   version="1.1"
   id="svg38"
   sodipodi:docname="efhotel.svg"
   inkscape:version="1.3 (0e150ed6c4, 2023-07-21)"
   xmlns:inkscape="http://www.inkscape.org/namespaces/inkscape"
   xmlns:sodipodi="http://sodipodi.sourceforge.net/DTD/sodipodi-0.dtd"
   xmlns="http://www.w3.org/2000/svg"
   xmlns:svg="http://www.w3.org/2000/svg">
  <defs
     id="defs42" />
  <sodipodi:namedview
     id="namedview40"
     pagecolor="#ffffff"
     bordercolor="#666666"
     borderopacity="1.0"
     inkscape:showpageshadow="2"
     inkscape:pageopacity="0.0"
     inkscape:pagecheckerboard="0"
     inkscape:deskcolor="#d1d1d1"
     showgrid="false"
     inkscape:zoom="32.561405"
     inkscape:cx="13.390086"
     inkscape:cy="19.332704"
     inkscape:window-width="3840"
     inkscape:window-height="2076"
     inkscape:window-x="0"
     inkscape:window-y="0"
     inkscape:window-maximized="1"
     inkscape:current-layer="svg38"
     showguides="true">
    <sodipodi:guide
       position="3.3168102,28.500539"
       orientation="1,0"
       id="guide1"
       inkscape:locked="false" />
    <sodipodi:guide
       position="27.179417,21.283406"
       orientation="0,-1"
       id="guide2"
       inkscape:locked="false" />
  </sodipodi:namedview>
  <g
     id="g2">
    <g
       transform="matrix(2.8227421,0,0,2.8227421,-32.277583,19.759195)"
       fill="#ffffff"
       id="g28"
       style="fill-rule:nonzero" />
    <g
       transform="matrix(0.99273325,0,0,0.99273325,3.3684907,29.531683)"
       fill="#000000"
       id="g18"
       style="fill-rule:nonzero">
      <ellipse
         opacity="0.04"
         cx="10.5"
         cy="5.8002901"
         rx="10.5"
         ry="5.2500229"
         id="ellipse2" />
      <ellipse
         opacity="0.04"
         cx="10.5"
         cy="5.8002901"
         rx="10.5"
         ry="5.2500229"
         id="ellipse4" />
      <ellipse
         opacity="0.04"
         cx="10.5"
         cy="5.8002901"
         rx="9.5"
         ry="4.7727499"
         id="ellipse6" />
      <ellipse
         opacity="0.04"
         cx="10.5"
         cy="5.8002901"
         rx="8.5"
         ry="4.2954993"
         id="ellipse8" />
      <ellipse
         opacity="0.04"
         cx="10.5"
         cy="5.8002901"
         rx="7.5"
         ry="3.818223"
         id="ellipse10" />
      <ellipse
         opacity="0.04"
         cx="10.5"
         cy="5.8002901"
         rx="6.5"
         ry="3.3409467"
         id="ellipse12" />
      <ellipse
         opacity="0.04"
         cx="10.5"
         cy="5.8002901"
         rx="5.5"
         ry="2.8636706"
         id="ellipse14" />
      <ellipse
         opacity="0.04"
         cx="10.5"
         cy="5.8002901"
         rx="4.5"
         ry="2.3863688"
         id="ellipse16" />
    </g>
    <g
       fill="#1b4e4c"
       id="g22"
       transform="matrix(0.99273325,0,0,0.99273325,0.39029104,0.74241923)"
       style="fill-rule:nonzero;fill:#005953;fill-opacity:1">
      <path
         d="m 27,13.5 c 0,5.574644 -6.749999,13.500002 -12.25,21.000002 -0.733335,1.000002 -1.766665,1.000002 -2.5,0 C 6.7499993,27.000002 0,19.222562 0,13.5 0,6.0441559 6.0441559,0 13.5,0 20.955844,0 27,6.0441559 27,13.5 Z"
         id="path20"
         style="fill:#005953;fill-opacity:1" />
    </g>
    <g
       opacity="0.25"
       fill="#000000"
       id="g26"
       transform="matrix(0.99273325,0,0,0.99273325,0.39029104,0.74241923)"
       style="fill-rule:nonzero">
      <path
         d="M 13.5,0 C 6.0441559,0 0,6.0441559 0,13.5 c 0,5.722562 6.7499993,13.5 12.25,21 0.75,1.022727 1.766664,1.000004 2.5,0 C 20.250001,27 27,19.074644 27,13.5 27,6.0441559 20.955844,0 13.5,0 Z m 0,1 C 20.415404,1 26,6.584596 26,13.5 c 0,2.398657 -1.504416,5.681431 -3.779297,9.238281 -2.27488,3.556851 -5.515584,7.403886 -8.277344,11.169922 C 13.743445,34.180814 13.612715,34.322738 13.5,34.441406 13.387285,34.322738 13.256555,34.180814 13.056641,33.908203 10.284481,30.127985 7.4148684,26.314159 5.015625,22.773438 2.6163816,19.232715 1,15.953538 1,13.5 1,6.584596 6.584596,1 13.5,1 Z"
         id="path24" />
    </g>
    <g
       id="g1"
       transform="translate(2.6237342e-7,0.03071122)">
      <path
         d="m 23.543704,7.4750327 c 0,4.0665253 0,8.1335893 0,12.2001153 -0.593811,0 -1.187621,0 -1.781432,0 0,-0.557643 0,-1.115825 0,-1.673467 -5.578044,0 -11.156628,0 -16.7346716,0 0,0.557642 0,1.115824 0,1.673467 -0.5759965,0 -1.1514531,0 -1.7274496,0 0,-2.555007 0,-5.110553 0,-7.665559 0.3859771,-0.423226 1.365225,-0.5042 1.7274496,0 0,1.133639 0,2.267278 0,3.400917 2.9474615,0 6.9788976,0 10.2567336,0 1.794389,0 3.750726,0.196497 4.804471,-0.431863 0.831875,-0.495562 1.581156,-1.432704 1.673467,-2.69914 0.09393,-1.28911 0.0049,-4.1728714 0,-4.4265909 -0.0049,-0.2515597 0.214851,-0.3778794 0.479367,-0.3778794 0.0021,0 0.0043,0 0.0065,0 0.431862,0 0.863725,0 1.295587,0 z"
         id="path164"
         style="fill:#ffffff;stroke-width:0.0539828" />
      <path
         d="m 15.338317,13.197211 c 0.66021,0.272073 1.534192,0.636457 1.457536,1.295587 -0.09285,0.798946 -1.627582,0.539828 -2.591175,0.539828 -2.714795,0 -5.0916584,0.136576 -7.8275073,0 -0.5668195,-0.02807 -0.9436192,-0.122541 -0.9716905,-0.593811 -0.042646,-0.709874 1.3619863,-1.216772 1.8893985,-1.403553 0.925805,-0.327676 1.8181409,-0.418906 2.8610893,-0.485845 1.611386,-0.103593 3.851133,0.09933 5.182349,0.647794 z"
         id="path166"
         style="fill:#ffffff;stroke-width:0.0539828" />
      <path
         d="m 20.304736,13.845004 c -0.235365,0.28287 -0.03347,0.106886 -1.133639,0.917708 -1.10017,0.810822 -1.963355,0.03779 -1.997364,-0.215931 -0.03401,-0.25372 -0.03131,-0.646714 0.05398,-0.971691 0.18624,-0.708794 0.945239,-1.639458 1.565501,-2.105329 0.280711,-0.211073 0.854548,-0.521475 1.133639,-0.593811 0.368703,-0.09555 0.863185,-0.186241 1.133639,0 0.270454,0.18624 0.462633,1.010018 0.107966,1.781432 -0.249941,0.544201 -0.62836,0.904752 -0.863725,1.187622 z"
         id="path168"
         style="fill:#ffffff;stroke-width:0.0539828" />
    </g>
  </g>
</svg>
