<?xml version="1.0" encoding="UTF-8" standalone="no"?>
<svg
   display="block"
   height="41px"
   width="27px"
   viewBox="0 0 27 41"
   version="1.1"
   id="svg38"
   sodipodi:docname="hotelmarker.svg"
   inkscape:version="1.2.2 (b0a8486541, 2022-12-01)"
   xmlns:inkscape="http://www.inkscape.org/namespaces/inkscape"
   xmlns:sodipodi="http://sodipodi.sourceforge.net/DTD/sodipodi-0.dtd"
   xmlns="http://www.w3.org/2000/svg"
   xmlns:svg="http://www.w3.org/2000/svg">
  <defs
     id="defs42">
	

		
		
		
	</defs>
  <sodipodi:namedview
     id="namedview40"
     pagecolor="#ffffff"
     bordercolor="#666666"
     borderopacity="1.0"
     inkscape:showpageshadow="2"
     inkscape:pageopacity="0.0"
     inkscape:pagecheckerboard="0"
     inkscape:deskcolor="#d1d1d1"
     showgrid="false"
     inkscape:zoom="5.7560976"
     inkscape:cx="13.463983"
     inkscape:cy="20.586864"
     inkscape:window-width="3840"
     inkscape:window-height="2123"
     inkscape:window-x="0"
     inkscape:window-y="0"
     inkscape:window-maximized="1"
     inkscape:current-layer="svg38" />
  <g
     transform="matrix(2.8227421,0,0,2.8227421,-32.277583,19.759195)"
     fill="#ffffff"
     id="g28"
     style="fill-rule:nonzero" />
  <g
     id="g539"
     transform="matrix(0.35169109,0,0,0.35169109,17.698429,0.74241923)">
    <g
       id="g448">
      <g
         transform="matrix(2.8227421,0,0,2.8227421,-40.74581,81.859521)"
         fill="#000000"
         id="g18"
         style="fill-rule:nonzero">
        <ellipse
           opacity="0.04"
           cx="10.5"
           cy="5.8002901"
           rx="10.5"
           ry="5.2500229"
           id="ellipse2" />
        <ellipse
           opacity="0.04"
           cx="10.5"
           cy="5.8002901"
           rx="10.5"
           ry="5.2500229"
           id="ellipse4" />
        <ellipse
           opacity="0.04"
           cx="10.5"
           cy="5.8002901"
           rx="9.5"
           ry="4.7727499"
           id="ellipse6" />
        <ellipse
           opacity="0.04"
           cx="10.5"
           cy="5.8002901"
           rx="8.5"
           ry="4.2954993"
           id="ellipse8" />
        <ellipse
           opacity="0.04"
           cx="10.5"
           cy="5.8002901"
           rx="7.5"
           ry="3.818223"
           id="ellipse10" />
        <ellipse
           opacity="0.04"
           cx="10.5"
           cy="5.8002901"
           rx="6.5"
           ry="3.3409467"
           id="ellipse12" />
        <ellipse
           opacity="0.04"
           cx="10.5"
           cy="5.8002901"
           rx="5.5"
           ry="2.8636706"
           id="ellipse14" />
        <ellipse
           opacity="0.04"
           cx="10.5"
           cy="5.8002901"
           rx="4.5"
           ry="2.3863688"
           id="ellipse16" />
      </g>
      <g
         fill="#3fb1ce"
         id="g22"
         transform="matrix(2.8227421,0,0,2.8227421,-49.214036,0)"
         style="fill-rule:nonzero">
        <path
           d="m 27,13.5 c 0,5.574644 -6.749999,13.500002 -12.25,21.000002 -0.733335,1.000002 -1.766665,1.000002 -2.5,0 C 6.7499993,27.000002 0,19.222562 0,13.5 0,6.0441559 6.0441559,0 13.5,0 20.955844,0 27,6.0441559 27,13.5 Z"
           id="path20" />
      </g>
      <g
         opacity="0.25"
         fill="#000000"
         id="g26"
         transform="matrix(2.8227421,0,0,2.8227421,-49.214036,0)"
         style="fill-rule:nonzero">
        <path
           d="M 13.5,0 C 6.0441559,0 0,6.0441559 0,13.5 c 0,5.722562 6.7499993,13.5 12.25,21 0.75,1.022727 1.766664,1.000004 2.5,0 C 20.250001,27 27,19.074644 27,13.5 27,6.0441559 20.955844,0 13.5,0 Z m 0,1 C 20.415404,1 26,6.584596 26,13.5 c 0,2.398657 -1.504416,5.681431 -3.779297,9.238281 -2.27488,3.556851 -5.515584,7.403886 -8.277344,11.169922 C 13.743445,34.180814 13.612715,34.322738 13.5,34.441406 13.387285,34.322738 13.256555,34.180814 13.056641,33.908203 10.284481,30.127985 7.4148684,26.314159 5.015625,22.773438 2.6163816,19.232715 1,15.953538 1,13.5 1,6.584596 6.584596,1 13.5,1 Z"
           id="path24" />
      </g>
      <path
         d="m 16.620482,19.143543 c 0,11.562775 0,23.127085 0,34.689861 -1.688445,0 -3.376889,0 -5.065334,0 0,-1.585603 0,-3.172741 0,-4.758344 -15.8606342,0 -31.722803,0 -47.583438,0 0,1.585603 0,3.172741 0,4.758344 -1.637791,0 -3.274047,0 -4.911838,0 0,-7.264917 0,-14.531368 0,-21.796285 1.097489,-1.2034 3.881887,-1.433643 4.911838,0 0,3.223395 0,6.446789 0,9.670183 8.380825,0 19.843829,0 29.1640429,0 5.1021724,0 10.6648298,0.558722 13.6610514,-1.22796 2.3653573,-1.409084 4.4958677,-4.073756 4.7583437,-7.674748 0.267081,-3.665459 0.01381,-11.86516 0,-12.586587 -0.01381,-0.715286 0.61091,-1.074464 1.363035,-1.074464 0.0061,0 0.01228,0 0.01842,0 1.227959,0 2.455919,0 3.683879,0 z"
         id="path164"
         style="fill:#ffffff;stroke-width:0.153495" />
      <path
         d="m -6.7107522,35.414009 c 1.8772434,0.773614 4.3623268,1.809705 4.1443639,3.683879 -0.2640113,2.271725 -4.627873,1.534949 -7.367758,1.534949 -7.7192617,0 -14.4776447,0.388342 -22.2567697,0 -1.611697,-0.07982 -2.683091,-0.348433 -2.762909,-1.688444 -0.121261,-2.018459 3.872678,-3.459777 5.372324,-3.990869 2.632438,-0.931715 5.16971,-1.191121 8.135233,-1.381455 4.581824,-0.294557 10.95033,0.282431 14.7355158,1.84194 z"
         id="path166"
         style="fill:#ffffff;stroke-width:0.153495" />
      <path
         d="m 7.4107841,37.255948 c -0.669238,0.804314 -0.095167,0.30392 -3.2233941,2.609414 -3.1282273,2.305495 -5.5826117,0.107447 -5.6793135,-0.613979 -0.096702,-0.721427 -0.089027,-1.83887 0.1534949,-2.76291 0.52955763,-2.015389 2.6876968,-4.661642 4.4513539,-5.986303 0.7981738,-0.600166 2.4298252,-1.482762 3.2233941,-1.688445 1.0483706,-0.271686 2.4543844,-0.529557 3.2233942,0 0.7690094,0.529558 1.3154514,2.871891 0.3069899,5.065334 -0.7106817,1.547383 -1.7866813,2.572575 -2.4559194,3.376889 z"
         id="path168"
         style="fill:#ffffff;stroke-width:0.153495" />
    </g>
  </g>
</svg>
