<?xml version="1.0" encoding="UTF-8" standalone="no"?>
<svg
   xmlns:dc="http://purl.org/dc/elements/1.1/"
   xmlns:cc="http://creativecommons.org/ns#"
   xmlns:rdf="http://www.w3.org/1999/02/22-rdf-syntax-ns#"
   xmlns:svg="http://www.w3.org/2000/svg"
   xmlns="http://www.w3.org/2000/svg"
   xmlns:sodipodi="http://sodipodi.sourceforge.net/DTD/sodipodi-0.dtd"
   xmlns:inkscape="http://www.inkscape.org/namespaces/inkscape"
   display="block"
   height="41px"
   width="27px"
   viewBox="0 0 27 41"
   version="1.1"
   id="svg38"
   sodipodi:docname="park.svg"
   inkscape:version="1.0.1 (3bc2e813f5, 2020-09-07)">
  <metadata
     id="metadata24">
    <rdf:RDF>
      <cc:Work
         rdf:about="">
        <dc:format>image/svg+xml</dc:format>
        <dc:type
           rdf:resource="http://purl.org/dc/dcmitype/StillImage" />
        <dc:title></dc:title>
      </cc:Work>
    </rdf:RDF>
  </metadata>
  <defs
     id="defs42" />
  <sodipodi:namedview
     id="namedview40"
     pagecolor="#ffffff"
     bordercolor="#666666"
     borderopacity="1.0"
     inkscape:showpageshadow="2"
     inkscape:pageopacity="0.0"
     inkscape:pagecheckerboard="0"
     inkscape:deskcolor="#d1d1d1"
     showgrid="false"
     inkscape:zoom="8.1403513"
     inkscape:cx="10.032839"
     inkscape:cy="13.737173"
     inkscape:window-width="1555"
     inkscape:window-height="994"
     inkscape:window-x="2021"
     inkscape:window-y="107"
     inkscape:window-maximized="0"
     inkscape:current-layer="svg38"
     inkscape:document-rotation="0"
     inkscape:snap-global="false" />
  <g
     transform="matrix(2.8227421,0,0,2.8227421,-32.277583,19.759195)"
     fill="#ffffff"
     id="g28"
     style="fill-rule:nonzero" />
  <g
     transform="matrix(0.99273325,0,0,0.99273325,3.3684907,29.531683)"
     fill="#000000"
     id="g18"
     style="fill-rule:nonzero">
    <ellipse
       opacity="0.04"
       cx="10.5"
       cy="5.8002901"
       rx="10.5"
       ry="5.2500229"
       id="ellipse2" />
    <ellipse
       opacity="0.04"
       cx="10.5"
       cy="5.8002901"
       rx="10.5"
       ry="5.2500229"
       id="ellipse4" />
    <ellipse
       opacity="0.04"
       cx="10.5"
       cy="5.8002901"
       rx="9.5"
       ry="4.7727499"
       id="ellipse6" />
    <ellipse
       opacity="0.04"
       cx="10.5"
       cy="5.8002901"
       rx="8.5"
       ry="4.2954993"
       id="ellipse8" />
    <ellipse
       opacity="0.04"
       cx="10.5"
       cy="5.8002901"
       rx="7.5"
       ry="3.818223"
       id="ellipse10" />
    <ellipse
       opacity="0.04"
       cx="10.5"
       cy="5.8002901"
       rx="6.5"
       ry="3.3409467"
       id="ellipse12" />
    <ellipse
       opacity="0.04"
       cx="10.5"
       cy="5.8002901"
       rx="5.5"
       ry="2.8636706"
       id="ellipse14" />
    <ellipse
       opacity="0.04"
       cx="10.5"
       cy="5.8002901"
       rx="4.5"
       ry="2.3863688"
       id="ellipse16" />
  </g>
  <g
     fill="#3fb1ce"
     id="g22"
     transform="matrix(0.99273325,0,0,0.99273325,0.39029104,0.74241923)"
     style="fill-rule:nonzero;fill:#3fb15c;fill-opacity:1">
    <path
       d="m 27,13.5 c 0,5.574644 -6.749999,13.500002 -12.25,21.000002 -0.733335,1.000002 -1.766665,1.000002 -2.5,0 C 6.7499993,27.000002 0,19.222562 0,13.5 0,6.0441559 6.0441559,0 13.5,0 20.955844,0 27,6.0441559 27,13.5 Z"
       id="path20"
       style="fill:#3fb15c;fill-opacity:1" />
  </g>
  <g
     opacity="0.25"
     fill="#000000"
     id="g26"
     transform="matrix(0.99273325,0,0,0.99273325,0.39029104,0.74241923)"
     style="fill-rule:nonzero">
    <path
       d="M 13.5,0 C 6.0441559,0 0,6.0441559 0,13.5 c 0,5.722562 6.7499993,13.5 12.25,21 0.75,1.022727 1.766664,1.000004 2.5,0 C 20.250001,27 27,19.074644 27,13.5 27,6.0441559 20.955844,0 13.5,0 Z m 0,1 C 20.415404,1 26,6.584596 26,13.5 c 0,2.398657 -1.504416,5.681431 -3.779297,9.238281 -2.27488,3.556851 -5.515584,7.403886 -8.277344,11.169922 C 13.743445,34.180814 13.612715,34.322738 13.5,34.441406 13.387285,34.322738 13.256555,34.180814 13.056641,33.908203 10.284481,30.127985 7.4148684,26.314159 5.015625,22.773438 2.6163816,19.232715 1,15.953538 1,13.5 1,6.584596 6.584596,1 13.5,1 Z"
       id="path24" />
  </g>
  <path
     d="m 17.008588,18.709825 a 0.44104226,0.44104226 0 0 1 -0.121331,-0.29512 0.40989059,0.40989059 0 0 1 0.403337,-0.408253 h 2.372446 a 0.40989059,0.40989059 0 0 0 0.40989,-0.40989 0.42300708,0.42300708 0 0 0 -0.129527,-0.293483 l -3.52178,-3.528336 a 0.49186869,0.49186869 0 0 1 -0.103289,-0.278728 0.40825102,0.40825102 0 0 1 0.409891,-0.408248 h 1.874021 a 0.41153017,0.41153017 0 0 0 0.409891,-0.411533 0.40497189,0.40497189 0 0 0 -0.126246,-0.29184 l -3.510302,-3.5037462 -0.02297,-0.02297 a 0.42956531,0.42956531 0 0 1 -0.108211,-0.278723 0.40989059,0.40989059 0 0 1 0.406612,-0.409891 h 1.419859 a 0.40989059,0.40989059 0 0 0 0.409892,-0.40989 0.40333235,0.40333235 0 0 0 -0.111492,-0.2688891 h 0.0099 L 14.175464,3.6405931 a 0.41480927,0.41480927 0 0 0 -0.06887,-0.072143 0.40825102,0.40825102 0 0 0 -0.259052,-0.090177 v 0 a 0.40825102,0.40825102 0 0 0 -0.259048,0.090177 0.41480927,0.41480927 0 0 0 -0.06887,0.072143 L 10.325762,7.490282 a 0.40333235,0.40333235 0 0 0 -0.111493,0.2688898 0.40989059,0.40989059 0 0 0 0.409891,0.409892 h 1.419859 a 0.39513451,0.39513451 0 0 1 0.301682,0.688613 l -0.02297,0.02297 -3.507026,3.5037472 a 0.40497189,0.40497189 0 0 0 -0.1262455,0.29184 0.41153017,0.41153017 0 0 0 0.4033297,0.411533 H 10.97009 a 0.40825102,0.40825102 0 0 1 0.40989,0.408248 0.49186869,0.49186869 0 0 1 -0.103288,0.278728 L 7.7516345,17.30308 a 0.42300708,0.42300708 0 0 0 -0.1344449,0.293482 0.40989059,0.40989059 0 0 0 0.4098906,0.40989 h 2.3773628 a 0.40989059,0.40989059 0 0 1 0.406612,0.408253 0.44104226,0.44104226 0 0 1 -0.121328,0.29512 l -3.5086597,3.495549 -0.014755,0.01476 a 0.40661146,0.40661146 0 0 0 0,0.575484 0.41972795,0.41972795 0 0 0 0.2951224,0.129529 h 5.5663163 v 1.639562 l 1.639559,-0.01312 v -1.626438 h 5.559756 a 0.4312049,0.4312049 0 0 0 0.426289,-0.41645 0.40661146,0.40661146 0 0 0 -0.116412,-0.290201 z"
     id="path1604"
     style="stroke-width:1.63956;fill:#f9f9f9" />
</svg>
