<?xml version="1.0" encoding="UTF-8" standalone="no"?>
<svg
   xmlns:dc="http://purl.org/dc/elements/1.1/"
   xmlns:cc="http://creativecommons.org/ns#"
   xmlns:rdf="http://www.w3.org/1999/02/22-rdf-syntax-ns#"
   xmlns:svg="http://www.w3.org/2000/svg"
   xmlns="http://www.w3.org/2000/svg"
   xmlns:sodipodi="http://sodipodi.sourceforge.net/DTD/sodipodi-0.dtd"
   xmlns:inkscape="http://www.inkscape.org/namespaces/inkscape"
   display="block"
   height="41px"
   width="27px"
   viewBox="0 0 27 41"
   version="1.1"
   id="svg38"
   sodipodi:docname="photo.svg"
   inkscape:version="1.0.1 (3bc2e813f5, 2020-09-07)">
  <metadata
     id="metadata24">
    <rdf:RDF>
      <cc:Work
         rdf:about="">
        <dc:format>image/svg+xml</dc:format>
        <dc:type
           rdf:resource="http://purl.org/dc/dcmitype/StillImage" />
        <dc:title></dc:title>
      </cc:Work>
    </rdf:RDF>
  </metadata>
  <defs
     id="defs42" />
  <sodipodi:namedview
     id="namedview40"
     pagecolor="#ffffff"
     bordercolor="#666666"
     borderopacity="1.0"
     inkscape:showpageshadow="2"
     inkscape:pageopacity="0.0"
     inkscape:pagecheckerboard="0"
     inkscape:deskcolor="#d1d1d1"
     showgrid="false"
     inkscape:zoom="5.7560978"
     inkscape:cx="-2.7235948"
     inkscape:cy="16.194069"
     inkscape:window-width="1555"
     inkscape:window-height="994"
     inkscape:window-x="176"
     inkscape:window-y="0"
     inkscape:window-maximized="0"
     inkscape:current-layer="svg38"
     inkscape:document-rotation="0" />
  <g
     transform="matrix(2.8227421,0,0,2.8227421,-32.277583,19.759195)"
     fill="#ffffff"
     id="g28"
     style="fill-rule:nonzero" />
  <g
     transform="matrix(0.99273325,0,0,0.99273325,3.3684907,29.531683)"
     fill="#000000"
     id="g18"
     style="fill-rule:nonzero">
    <ellipse
       opacity="0.04"
       cx="10.5"
       cy="5.8002901"
       rx="10.5"
       ry="5.2500229"
       id="ellipse2" />
    <ellipse
       opacity="0.04"
       cx="10.5"
       cy="5.8002901"
       rx="10.5"
       ry="5.2500229"
       id="ellipse4" />
    <ellipse
       opacity="0.04"
       cx="10.5"
       cy="5.8002901"
       rx="9.5"
       ry="4.7727499"
       id="ellipse6" />
    <ellipse
       opacity="0.04"
       cx="10.5"
       cy="5.8002901"
       rx="8.5"
       ry="4.2954993"
       id="ellipse8" />
    <ellipse
       opacity="0.04"
       cx="10.5"
       cy="5.8002901"
       rx="7.5"
       ry="3.818223"
       id="ellipse10" />
    <ellipse
       opacity="0.04"
       cx="10.5"
       cy="5.8002901"
       rx="6.5"
       ry="3.3409467"
       id="ellipse12" />
    <ellipse
       opacity="0.04"
       cx="10.5"
       cy="5.8002901"
       rx="5.5"
       ry="2.8636706"
       id="ellipse14" />
    <ellipse
       opacity="0.04"
       cx="10.5"
       cy="5.8002901"
       rx="4.5"
       ry="2.3863688"
       id="ellipse16" />
  </g>
  <g
     fill="#3fb1ce"
     id="g22"
     transform="matrix(0.99273325,0,0,0.99273325,0.39029104,0.74241923)"
     style="fill-rule:nonzero;fill:#3fb15c;fill-opacity:1">
    <path
       d="m 27,13.5 c 0,5.574644 -6.749999,13.500002 -12.25,21.000002 -0.733335,1.000002 -1.766665,1.000002 -2.5,0 C 6.7499993,27.000002 0,19.222562 0,13.5 0,6.0441559 6.0441559,0 13.5,0 20.955844,0 27,6.0441559 27,13.5 Z"
       id="path20"
       style="fill:#3fb15c;fill-opacity:1" />
  </g>
  <g
     opacity="0.25"
     fill="#000000"
     id="g26"
     transform="matrix(0.99273325,0,0,0.99273325,0.39029104,0.74241923)"
     style="fill-rule:nonzero">
    <path
       d="M 13.5,0 C 6.0441559,0 0,6.0441559 0,13.5 c 0,5.722562 6.7499993,13.5 12.25,21 0.75,1.022727 1.766664,1.000004 2.5,0 C 20.250001,27 27,19.074644 27,13.5 27,6.0441559 20.955844,0 13.5,0 Z m 0,1 C 20.415404,1 26,6.584596 26,13.5 c 0,2.398657 -1.504416,5.681431 -3.779297,9.238281 -2.27488,3.556851 -5.515584,7.403886 -8.277344,11.169922 C 13.743445,34.180814 13.612715,34.322738 13.5,34.441406 13.387285,34.322738 13.256555,34.180814 13.056641,33.908203 10.284481,30.127985 7.4148684,26.314159 5.015625,22.773438 2.6163816,19.232715 1,15.953538 1,13.5 1,6.584596 6.584596,1 13.5,1 Z"
       id="path24" />
  </g>
  <g
     id="g1498"
     transform="matrix(0.03470193,0,0,0.03470193,5.0277365,4.8457124)"
     style="fill:#ffffff">
    <g
       id="g1496"
       style="fill:#ffffff">
      <g
         id="g1494"
         style="fill:#ffffff">
        <path
           d="m 426.665,191.991 c -11.776,0 -21.333,9.557 -21.333,21.333 0,11.776 9.557,21.333 21.333,21.333 11.776,0 21.333,-9.557 21.333,-21.333 0,-11.776 -9.557,-21.333 -21.333,-21.333 z"
           id="path1488"
           style="fill:#ffffff" />
        <path
           d="m 255.998,149.325 c -70.598,0 -128,57.402 -128,128 0,70.598 57.402,128 128,128 70.598,0 128,-57.402 128,-128 0,-70.598 -57.402,-128 -128,-128 z m 0,213.333 c -47.034,0 -85.333,-38.299 -85.333,-85.333 0,-47.034 38.299,-85.333 85.333,-85.333 47.034,0 85.333,38.299 85.333,85.333 0,47.034 -38.299,85.333 -85.333,85.333 z"
           id="path1490"
           style="fill:#ffffff" />
        <path
           d="m 449.536,128 h -23.104 c -2.604,0 -4.888,-1.784 -5.522,-4.321 L 409.817,79.287 c -5.382,-21.53 -24.73,-36.62 -46.916,-36.62 H 149.099 c -22.185,0 -41.533,15.09 -46.915,36.618 L 91.09,123.682 C 90.456,126.216 88.172,128 85.568,128 H 62.464 C 27.962,128 0,155.962 0,190.464 v 216.384 c 0,34.503 27.963,62.485 62.464,62.485 H 449.536 C 484.037,469.333 512,441.35 512,406.848 V 190.464 C 512,155.962 484.038,128 449.536,128 Z m 19.797,278.848 c 0,10.945 -8.867,19.819 -19.797,19.819 H 62.464 c -10.93,0 -19.797,-8.873 -19.797,-19.819 V 190.464 c 0,-10.938 8.859,-19.797 19.797,-19.797 h 23.104 c 22.186,0 41.533,-15.112 46.915,-36.639 l 11.094,-44.397 c 0.631,-2.523 2.906,-4.297 5.522,-4.297 h 213.803 c 2.616,0 4.891,1.774 5.522,4.299 l 11.093,44.392 c 5.382,21.529 24.73,36.642 46.916,36.642 h 23.104 c 10.938,0 19.797,8.859 19.797,19.797 v 216.384 z"
           id="path1492"
           style="fill:#ffffff" />
      </g>
    </g>
  </g>
</svg>
