<?xml version="1.0" encoding="UTF-8" standalone="no"?>
<!-- Created with Inkscape (http://www.inkscape.org/) -->

<svg
   width="256"
   height="256"
   viewBox="0 0 67.733332 67.733332"
   version="1.1"
   id="svg142"
   inkscape:version="1.2.2 (b0a8486541, 2022-12-01)"
   sodipodi:docname="rail-station.svg"
   xmlns:inkscape="http://www.inkscape.org/namespaces/inkscape"
   xmlns:sodipodi="http://sodipodi.sourceforge.net/DTD/sodipodi-0.dtd"
   xmlns="http://www.w3.org/2000/svg"
   xmlns:svg="http://www.w3.org/2000/svg">
  <sodipodi:namedview
     id="namedview144"
     pagecolor="#ffffff"
     bordercolor="#666666"
     borderopacity="1.0"
     inkscape:showpageshadow="2"
     inkscape:pageopacity="0.0"
     inkscape:pagecheckerboard="0"
     inkscape:deskcolor="#d1d1d1"
     inkscape:document-units="mm"
     showgrid="false"
     inkscape:zoom="2.3786088"
     inkscape:cx="411.37492"
     inkscape:cy="136.42428"
     inkscape:window-width="3052"
     inkscape:window-height="1805"
     inkscape:window-x="26"
     inkscape:window-y="23"
     inkscape:window-maximized="0"
     inkscape:current-layer="layer1" />
  <defs
     id="defs139">
    
     
</defs>
  <g
     inkscape:label="Ebene 1"
     inkscape:groupmode="layer"
     id="layer1">
    <ellipse
       style="fill:#4ab44a;stroke:#000000;stroke-width:0.0902564;fill-opacity:1"
       id="path250"
       cx="33.914787"
       cy="34.139866"
       rx="33.852947"
       ry="33.567039" />
    <rect
       fill="none"
       width="58.342987"
       height="58.342987"
       id="rect3252"
       x="4.834106"
       y="4.886682"
       style="stroke-width:0.128638" />
    <path
       d="m 44.17533,48.584831 c 2.673511,-0.430908 5.334824,-3.219205 5.334824,-6.617442 V 17.12169 c 0,-3.507677 -2.950831,-6.727463 -6.959937,-6.727463 H 25.399636 c -4.008989,0 -6.959937,3.219786 -6.959937,6.727463 v 24.845699 c 0,3.398237 2.661313,6.186534 5.334825,6.617442 l -8.017747,12.02662 h 4.625784 l 5.734946,-8.407527 h 15.71484 l 5.734945,8.407527 h 4.625669 z"
       id="path3031"
       style="stroke-width:0.116179;fill:#ffffff" />
    <path
       d="m 29.458235,12.951793 c 0,-0.60994 0.530473,-1.12229 1.140413,-1.12229 h 6.752558 c 0.60994,0 1.140413,0.51235 1.140413,1.12229 v 1.975043 c 0,0.60994 -0.501429,1.134256 -1.140413,1.134256 h -6.752558 c -0.638985,0 -1.140413,-0.524316 -1.140413,-1.134256 z"
       id="path3029"
       style="fill:#4ab44a;stroke-width:0.116179;fill-opacity:1" />
    <path
       d="m 22.164283,20.881011 c 0,-1.858864 1.20222,-3.480956 3.467712,-3.480956 h 16.685864 c 2.265491,0 3.467828,1.622092 3.467828,3.480956 v 4.472893 c 0.01754,2.149312 -1.550874,3.465156 -3.467828,3.465156 H 25.631995 c -1.916954,0 -3.485371,-1.315844 -3.467712,-3.465156 z"
       id="path3027"
       style="fill:#4ab44a;stroke-width:0.116179;fill-opacity:1" />
    <path
       d="m 25.254413,44.960626 c -1.685177,0 -3.05121,-1.366266 -3.05121,-3.051326 0,-1.685061 1.366033,-3.05121 3.05121,-3.05121 1.685177,0 3.05121,1.366149 3.05121,3.05121 0,1.68506 -1.366033,3.051326 -3.05121,3.051326 z"
       id="path3025"
       style="fill:#4ab44a;stroke-width:0.116179;fill-opacity:1" />
    <path
       d="m 39.573478,41.909416 c 0,-1.685061 1.366033,-3.05121 3.05121,-3.05121 1.685177,0 3.05121,1.366149 3.05121,3.05121 0,1.685061 -1.366033,3.051326 -3.05121,3.051326 -1.685177,0 -3.05121,-1.366382 -3.05121,-3.051326 z"
       id="path3023"
       style="fill:#4ab44a;stroke-width:0.116179;fill-opacity:1" />
    <path
       d="m 25.123711,5.4264122 -0.170638,0.2468804 -1.328797,1.9024316 0.951215,0.6643989 1.15453,-1.6519206 h 3.743143 l 2.062178,4.8722585 1.071025,-0.450194 -1.873387,-4.4220645 h 6.484242 l -1.873387,4.4220645 1.071026,0.450194 2.062178,-4.8722585 h 3.743143 L 43.374711,8.2401231 44.325927,7.5757242 42.997129,5.6732926 42.82286,5.4264122 H 42.521521 38.270095 37.707352 30.24285 29.858007 25.428681 Z"
       id="path3045"
       style="color:#000000;font-style:normal;font-variant:normal;font-weight:normal;font-stretch:normal;font-size:medium;line-height:normal;font-family:Sans;-inkscape-font-specification:Sans;text-indent:0;text-align:start;text-decoration:none;text-decoration-line:none;letter-spacing:normal;word-spacing:normal;text-transform:none;writing-mode:lr-tb;direction:ltr;baseline-shift:baseline;text-anchor:start;display:inline;overflow:visible;visibility:visible;fill:#ffffff;fill-opacity:1;stroke:none;stroke-width:1.16179;marker:none;enable-background:accumulate" />
  </g>
</svg>
