<?xml version="1.0" encoding="utf-8"?>
<!-- Generator: Adobe Illustrator 16.0.4, SVG Export Plug-In . SVG Version: 6.00 Build 0)  -->
<!DOCTYPE svg PUBLIC "-//W3C//DTD SVG 1.1//EN" "http://www.w3.org/Graphics/SVG/1.1/DTD/svg11.dtd">
<svg version="1.1" id="Ebene_1" xmlns="http://www.w3.org/2000/svg" xmlns:xlink="http://www.w3.org/1999/xlink" x="0px" y="0px"
	 width="202px" height="230px" viewBox="0 0 202 230" enable-background="new 0 0 202 230" xml:space="preserve">
<polygon fill="#1D1D1B" points="117.871,44.266 139.243,64.106 117.459,84.201 137.331,102.646 159.246,82.551 180.624,102.517 
	201.587,82.93 180.346,64.361 202,44.266 181.992,25.827 160.343,44.647 138.967,24.678 "/>
<path fill="#F08400" d="M158.542,166.793c26.717,0,39.739-11.447,39.739-29.764c0-17.549-12.745-30.525-37.544-30.525
	c-22.062,0-37.408,11.066-37.408,31.162c0,10.43,3.02,18.951,8.225,27.22l15.754-8.775c-3.7-6.612-5.069-11.448-5.069-17.302
	c0-6.229,3.559-10.555,11.512-11.319v39.176C154.984,166.793,156.488,166.793,158.542,166.793 M169.092,146.569v-19.08
	c7.127,0.765,10.963,3.688,10.963,8.904C180.055,143.135,176.355,145.421,169.092,146.569 M135.665,229.239h61.106v-23.02h-4.796
	c3.015-3.69,6.307-8.143,6.307-14.882c0-14.497-11.924-23.017-37.68-23.017c-26.718,0-36.588,9.666-36.588,22.129
	c0,6.996,2.738,11.317,6.579,15.77h-2.466c-9.861,0-12.604-3.942-15.483-20.222l-14.245,8.395
	C102.097,218.556,110.997,229.239,135.665,229.239 M147.031,206.22c-2.053-2.287-3.423-4.705-3.423-8.006
	c0-4.836,3.423-7.38,17.813-7.38c13.429,0,16.58,2.544,16.58,7.243c0,3.563-1.375,5.855-3.428,8.143H147.031z"/>
<path fill="#1D1D1B" d="M85.639,29.767v38.156c0,8.392-3.156,10.684-8.225,10.684s-8.22-2.292-8.22-10.936V29.767H47.691h-3.292
	H31.243c0.271-8.904,6.578-12.718,15.896-13.99L38.777,0C13.706,2.93,8.346,14.245,8.278,29.767H0v17.932h8.365v48.842h24.246
	V47.699h11.788v22.894c0,17.554,7.53,27.349,23.29,27.349c8.355,0,13.561-2.675,17.949-5.853v4.453h24.799V29.767H85.639z"/>
</svg>
