<?xml version="1.0" encoding="UTF-8"?>
<svg id="Layer_1" xmlns="http://www.w3.org/2000/svg" version="1.1" viewBox="0 0 1818 572">
  <!-- Generator: Adobe Illustrator 29.6.1, SVG Export Plug-In . SVG Version: 2.1.1 Build 9)  -->
  <defs>
    <style>
      .st0 {
        fill: #0b194a;
      }

      .st1 {
        fill: #4d4d4d;
      }

      .st2 {
        fill: none;
        stroke: #4d4d4d;
        stroke-width: .8px;
      }
    </style>
  </defs>
  <line class="st2" x1="1382.3" y1="128.7" x2="1382.3" y2="443.4"/>
  <g>
    <g>
      <rect class="st0" x="1629.2" y="198.8" width="23.7" height="91.7"/>
      <rect class="st0" x="1673.8" y="198.8" width="23.7" height="91.7"/>
      <polygon class="st0" points="1740.8 290.4 1764.5 290.4 1764.5 217.7 1786.9 217.7 1786.9 198.8 1718.4 198.8 1718.4 217.7 1740.8 217.7 1740.8 290.4"/>
      <polygon class="st0" points="1553.8 244.6 1578.5 293.4 1612.6 198.8 1588.9 198.8 1572.9 246.1 1553.8 205.1 1534.7 246.1 1518.8 198.8 1495.1 198.8 1529.1 293.4 1553.8 244.6"/>
    </g>
    <path class="st1" d="M1482.4,267.9v22.5h-6.4v-4.9c-2.3,3.4-6.4,5.4-12.3,5.4-8.5,0-13.8-4.5-13.8-11s3.9-10.9,15-10.9h10.7v-1.3c0-5.7-3.3-9-10-9s-8.9,1.6-11.8,4l-2.8-5.1c3.9-3.1,9.4-4.8,15.4-4.8,10.2,0,16,4.9,16,15.1ZM1475.6,279v-5.2h-10.4c-6.7,0-8.6,2.6-8.6,5.8s3.1,6.1,8.2,6.1,9.1-2.3,10.8-6.6Z"/>
    <g>
      <path class="st1" d="M1493.9,360.7c0,8.4-6.3,13.2-18.7,13.2h-23.2v-48.7h21.9c11.2,0,17.5,4.7,17.5,12.6s-2.7,9-6.5,10.9c5.5,1.5,9.1,5.6,9.1,12.1ZM1458.9,330.7v15.6h14.3c7.1,0,11.1-2.6,11.1-7.8s-4-7.8-11.1-7.8h-14.3ZM1486.8,360.1c0-5.6-4.2-8.1-11.9-8.1h-16v16.2h16c7.7,0,11.9-2.4,11.9-8.1Z"/>
      <path class="st1" d="M1557,336.6v6.5c-.6,0-1,0-1.5,0-7.2,0-11.6,4.4-11.6,12.5v18.4h-6.7v-36.9h6.4v6.2c2.4-4.3,7-6.5,13.4-6.5Z"/>
      <path class="st1" d="M1627.8,351.5v22.3h-6.3v-4.9c-2.2,3.3-6.3,5.3-12.1,5.3-8.4,0-13.6-4.5-13.6-10.9s3.8-10.8,14.8-10.8h10.6v-1.3c0-5.6-3.3-8.9-9.9-8.9s-8.8,1.5-11.7,4l-2.8-5c3.8-3.1,9.3-4.7,15.2-4.7,10.1,0,15.8,4.9,15.8,15ZM1621.1,362.5v-5.1h-10.3c-6.6,0-8.5,2.6-8.5,5.7s3.1,6,8.1,6,9-2.3,10.6-6.5Z"/>
      <path class="st1" d="M1708.6,352.6v21.2h-6.7v-20.5c0-7.2-3.6-10.8-10-10.8s-11.7,4.2-11.7,12.2v19h-6.7v-36.9h6.4v5.6c2.7-3.8,7.4-5.9,13.3-5.9,9,0,15.3,5.1,15.3,16Z"/>
      <path class="st1" d="M1789.5,322.2v51.6h-6.4v-5.8c-3,4.2-7.7,6.3-13.2,6.3-10.8,0-18.7-7.6-18.7-18.9s7.9-18.8,18.7-18.8,9.8,1.9,12.9,5.9v-20.3h6.7ZM1782.9,355.4c0-7.9-5.4-12.9-12.4-12.9s-12.5,5.1-12.5,12.9,5.4,13,12.5,13,12.4-5.2,12.4-13Z"/>
    </g>
  </g>
  <g>
    <path class="st0" d="M278.4,398.6v-138c0-13.5-2.8-23.8-8.3-30.9-5.5-7.1-13.6-10.7-24.3-10.7-22.9,0-34.4,13.5-34.4,40.5v139.1h-58.1v-138c0-27.7-11-41.6-33.2-41.6-22.5,0-33.8,13-33.8,38.9v140.7H28.5v-135.4c0-7.8.2-14.5.6-20,.3-5.1,1.1-10.2,2.4-15.2,1.1-4.3,2.6-8.5,4.5-12.5,1.9-4,4.2-7.8,6.8-11.5,8-11.5,19-20.7,31.7-26.7,13.2-6.4,27.9-9.6,44.1-9.6,24.5,0,45.6,7.3,63.4,21.9,15.4-14.6,36.5-21.8,63.4-21.9,15-.2,29.8,2.9,43.5,9.1,12.8,5.7,23.9,14.5,32.3,25.6,5.3,7.4,9.3,15.7,11.8,24.5,2.4,8.5,3.6,20.3,3.6,35.2v136.4h-58Z"/>
    <path class="st0" d="M589.4,417.3c0,32-8.1,56.8-24.3,74.6-22.5,24.5-50.7,36.8-84.7,36.8-15,.1-29.8-2.5-43.8-7.7-12.8-4.8-24.6-12-34.6-21.3-9.7-9-17.4-19.9-22.8-32-5.6-12.5-8.4-26-8.3-39.7h57.4c.8,16,5.7,28.4,14.8,37,9.1,8.7,21.3,13,36.7,13,9.3,0,18.4-2.1,26.6-6.4,7.8-3.8,14.3-9.7,18.9-17,2.3-4.6,4-9.6,5-14.7,1.5-6.9,2.1-14,2.1-21v-29.3c-7.8,4.1-16,7.3-24.6,9.6-8.5,1.9-17.1,2.8-25.8,2.7-17,.2-33.8-3.5-49.1-10.7-14.7-6.9-27.7-17.1-37.9-29.9-13-17.1-19.5-40.2-19.5-69.3v-121h58.1v123.1c0,18.1,4.2,32.1,12.7,41.8,8.5,9.8,20.6,14.7,36.5,14.7,15.4,0,27.3-4.8,35.8-14.4,8.5-9.6,12.7-22.9,12.7-40v-125.3h58v246.2Z"/>
    <path class="st0" d="M1278.9,362.8c-2.2-4.5-4.1-9.2-5.6-14h-10.7c-22.1-.3-40.3-6.3-54.5-17.9-14.2-11.6-21.3-26.4-21.3-44.5-.2-13.8,4.7-27.1,13.6-37.6,9.1-10.8,20.9-18.2,35.5-22.1,3.7-1.1,7.4-1.9,11.3-2.4,3.9-.5,8.5-.9,13.6-1.1,3.9-.1,8.4-.3,13.4-.4,1.7-6.5,4-12.9,6.9-18.9,5.7-11.8,13.3-22.7,22.6-32h-45.3c-3.5,0-6.3,0-8.3.3-2,.2-4.1.5-6.5.8-16.1,1.1-31.8,5.1-46.5,11.6-13.4,6-25.7,14.4-36.1,24.8-10,10-18,21.9-23.7,34.9-5.8,13.5-8.7,28-8.6,42.6,0,12.7,2.3,25.2,6.8,37,4.5,11.8,11,22.7,19.2,32.2,8.5,9.8,18.5,18.2,29.6,24.8,11.5,7,24.1,11.9,37.3,14.7,3.7,1,7.5,1.7,11.3,2.1,3.2.4,7.3.7,12.4,1.1,5.1.3,12,.5,20.7.5h37.9v-2.5c-10.3-9.8-18.8-21.3-25.2-34.1"/>
    <path class="st0" d="M821.2,350.8c-1.1-2.3-2.1-4.6-3.1-6.9h-123.6V43.3h-62.8v300.1c0,10.3.5,17.9,1.5,22.9,1,5,3.1,9.8,6.2,13.9,4.5,7,11.3,12.1,19.2,14.7,8.1,2.7,19.6,4,34.6,4h170.2c-5-3.3-9.8-7-14.3-11-11.7-10.4-21.2-23-28.1-37"/>
    <path class="st0" d="M977,167.9c17.5-.1,34.9,3,51.2,9.3,15.4,5.9,29.5,14.5,41.7,25.6,11.7,10.7,21.2,23.7,27.8,38.1,6.7,14.7,10.2,30.7,10.1,46.9,0,15.4-3.5,30.5-10.4,44.2-6.9,13.9-16.6,26.2-28.4,36.2-12.5,10.6-26.7,18.9-42,24.5-16.4,6.1-33.7,9.2-51.2,9.1-17.2,0-34.3-3-50.4-9.1-15.2-5.7-29.3-14.2-41.4-25-11.7-10.4-21.2-23-28.1-37-6.9-14-10.5-29.4-10.4-45,0-16,3.5-31.7,10.4-46.1,6.8-14.3,16.4-27,28.1-37.6,12.2-10.9,26.4-19.4,41.7-25,16.4-6.1,33.7-9.2,51.2-9.1M977,219c-9.8,0-19.5,1.6-28.7,5.1-8.5,3.2-16.4,8-23.1,14.1-6.5,6-11.8,13.1-15.7,21-4,8-6,16.9-5.9,25.8,0,8.9,1.8,17.6,5.6,25.6,3.8,7.9,9.1,15,15.7,20.8,6.8,6.1,14.6,10.9,23.1,14.1,18.3,6.8,38.6,6.7,56.8-.3,8.6-3.2,16.5-8,23.4-14.1,6.5-5.8,11.8-12.8,15.7-20.5,3.9-7.8,6-16.3,5.9-25,0-8.9-1.9-17.7-5.6-25.8-3.8-8-9.1-15.1-15.7-21-6.9-6.1-14.8-11-23.4-14.4-8.9-3.6-18.5-5.4-28.1-5.4"/>
  </g>
</svg>